<svg width="41" height="41" viewBox="0 0 41 41" fill="none" xmlns="http://www.w3.org/2000/svg">
<rect x="0.5" y="0.5" width="40" height="40" transform="matrix(0 1 1 0 0 0)" stroke="black"/>
<path d="M3.34033 22.5009L3.34033 16.8188L37.6597 16.8188V22.5009H3.34033Z" fill="white"/>
<path d="M9.78687 29.099V17.4595H37.6804V29.099H9.78687Z" fill="white"/>
<path d="M14.8696 31.5577V26.2407H37.6597V31.5577H14.8696Z" fill="white"/>
<path d="M17.2664 36.4683V29.8496H27.8383V36.4683H17.2664Z" fill="white"/>
<path d="M26.0476 34.0092V29.498H32.7489V34.0092H26.0476Z" fill="white"/>
<path d="M20.0901 15.3243V8.62988H27.8383V15.3243H20.0901Z" fill="white"/>
<path d="M24.1675 19.6565V10.9785H30.2972V19.6565H24.1675Z" fill="white"/>
<path d="M27.8523 19.2705V14.3599H32.7629V19.2705H27.8523Z" fill="white"/>
<path d="M15.5583 9.84183V4.53174H20.4828V9.84183H15.5583Z" fill="white"/>
<path d="M17.0874 11.9081V5.76465H22.9209V11.9081H17.0874Z" fill="white"/>
<path d="M35.2078 16.8186V14.3599H37.6665V16.8186H35.2078Z" fill="#020203"/>
<path d="M32.749 16.8186V14.3599H35.2078V16.8186H32.749Z" fill="#020203"/>
<path d="M30.2971 14.3601V11.9014H32.7559V14.3601H30.2971Z" fill="#020203"/>
<path d="M27.8384 11.908V9.44922H30.2971V11.908H27.8384Z" fill="#020203"/>
<path d="M25.3796 9.44948V6.99072H27.8384V9.44948H25.3796Z" fill="#020203"/>
<path d="M22.9277 9.44948V6.99072H25.3865V9.44948H22.9277Z" fill="#020203"/>
<path d="M20.469 6.9905V4.53174H22.9278V6.9905H20.469Z" fill="#020203"/>
<path d="M18.0103 4.53884V2.08008H20.469V4.53884H18.0103Z" fill="#020203"/>
<path d="M15.5583 4.53884V2.08008H18.0171V4.53884H15.5583Z" fill="#020203"/>
<path d="M13.0996 9.44948V6.99072H15.5584V9.44948H13.0996Z" fill="#020203"/>
<path d="M13.0996 6.9905V4.53174H15.5584V6.9905H13.0996Z" fill="#020203"/>
<path d="M18.0103 14.3601V11.9014H20.469V14.3601H18.0103Z" fill="#020203"/>
<path d="M15.5583 11.908V9.44922H18.0171V11.908H15.5583Z" fill="#020203"/>
<path d="M20.469 16.8186V14.3599H22.9278V16.8186H20.469Z" fill="#020203"/>
<path d="M18.0103 16.8186V14.3599H20.469V16.8186H18.0103Z" fill="#020203"/>
<path d="M22.9277 16.8186V14.3599H25.3865V16.8186H22.9277Z" fill="#020203"/>
<path d="M13.1133 16.8186V14.3599H15.572V16.8186H13.1133Z" fill="#020203"/>
<path d="M10.6545 16.8186V14.3599H13.1133V16.8186H10.6545Z" fill="#020203"/>
<path d="M15.5723 16.8186V14.3599H18.031V16.8186H15.5723Z" fill="#020203"/>
<path d="M5.7439 16.8186V14.3599H8.20266V16.8186H5.7439Z" fill="#020203"/>
<path d="M3.28516 16.8186V14.3599H5.74392V16.8186H3.28516Z" fill="#020203"/>
<path d="M8.20264 16.8186V14.3599H10.6614V16.8186H8.20264Z" fill="#020203"/>
<path d="M0.833252 21.7293L0.833252 19.2705H3.29201V21.7293H0.833252Z" fill="#020203"/>
<path d="M0.833252 19.2776L0.833252 16.8188H3.29201V19.2776H0.833252Z" fill="#020203"/>
<path d="M13.1685 24.1883V21.7295H15.6272V24.1883H13.1685Z" fill="#020203"/>
<path d="M10.7097 24.1883V21.7295H13.1685V24.1883H10.7097Z" fill="#020203"/>
<path d="M15.6204 24.1883V21.7295H18.0791V24.1883H15.6204Z" fill="#020203"/>
<path d="M5.66138 24.1883V21.7295H8.25788V24.1883H5.66138Z" fill="#020203"/>
<path d="M3.28516 24.1883V21.7295H5.74392V24.1883H3.28516Z" fill="#020203"/>
<path d="M8.25781 24.1883V21.7295H10.7166V24.1883H8.25781Z" fill="#020203"/>
<path d="M8.20264 29.0989V26.6401H10.6614V29.0989H8.20264Z" fill="#020203"/>
<path d="M8.20264 26.6467V24.188H10.6614V26.6467H8.20264Z" fill="#020203"/>
<path d="M13.1133 29.0989V26.6401H15.572V29.0989H13.1133Z" fill="#020203"/>
<path d="M10.6545 29.0989V26.6401H13.1133V29.0989H10.6545Z" fill="#020203"/>
<path d="M15.5723 29.0989V26.6401H18.031V29.0989H15.5723Z" fill="#020203"/>
<path d="M13.1133 34.0164V31.5576H15.572V34.0164H13.1133Z" fill="#020203"/>
<path d="M13.1133 31.5574V29.0986H15.572V31.5574H13.1133Z" fill="#020203"/>
<path d="M18.0239 34.0164V31.5576H20.4827V34.0164H18.0239Z" fill="#020203"/>
<path d="M15.5723 34.0164V31.5576H18.031V34.0164H15.5723Z" fill="#020203"/>
<path d="M20.4827 34.0164V31.5576H22.9414V34.0164H20.4827Z" fill="#020203"/>
<path d="M15.5723 38.927V36.4683H18.031V38.927H15.5723Z" fill="#020203"/>
<path d="M15.5723 36.468V34.0093H18.031V36.468H15.5723Z" fill="#020203"/>
<path d="M20.4827 38.927V36.4683H22.9414V38.927H20.4827Z" fill="#020203"/>
<path d="M18.0239 38.927V36.4683H20.4827V38.927H18.0239Z" fill="#020203"/>
<path d="M22.9417 38.927V36.4683H25.4004V38.927H22.9417Z" fill="#020203"/>
<path d="M25.3933 38.927V36.4683H27.8521V38.927H25.3933Z" fill="#020203"/>
<path d="M27.8523 36.468V34.0093H30.3111V36.468H27.8523Z" fill="#020203"/>
<path d="M30.311 36.468V34.0093H32.7698V36.468H30.311Z" fill="#020203"/>
<path d="M32.7627 34.0164V31.5576H35.2215V34.0164H32.7627Z" fill="#020203"/>
<path d="M35.2217 34.0164V31.5576H37.6804V34.0164H35.2217Z" fill="#020203"/>
<path d="M37.6597 21.7293V19.2705H40.1184V21.7293H37.6597Z" fill="#020203"/>
<path d="M37.6597 19.2776V16.8188H40.1184V19.2776H37.6597Z" fill="#020203"/>
<path d="M37.6597 26.6467V24.188H40.1184V26.6467H37.6597Z" fill="#020203"/>
<path d="M37.6597 24.1883V21.7295H40.1184V24.1883H37.6597Z" fill="#020203"/>
<path d="M37.6597 31.5574V29.0986H40.1184V31.5574H37.6597Z" fill="#020203"/>
<path d="M37.6597 29.0989V26.6401H40.1184V29.0989H37.6597Z" fill="#020203"/>
</svg>
