<svg width="41" height="41" viewBox="0 0 41 41" fill="none" xmlns="http://www.w3.org/2000/svg">
<path d="M10.6409 16.8878V11.9014H15.6273V16.8878H10.6409Z" fill="white"/>
<path d="M13.2925 36.8813L13.2925 12.3213H25.3797V36.8813H13.2925Z" fill="white"/>
<path d="M23.8369 34.2917V11.4053H30.2972V34.2917H23.8369Z" fill="white"/>
<path d="M20.469 15.0077V9.44971H27.8384V15.0077H20.469Z" fill="white"/>
<path d="M11.7222 28.6307V16.2681H13.7884V28.6307H11.7222Z" fill="white"/>
<path d="M10.6409 24.1811V19.2705H14.1534V24.1811H10.6409Z" fill="white"/>
<path d="M10.6409 31.5508V26.6401H14.6562V31.5508H10.6409Z" fill="white"/>
<path d="M12.8516 36.4685V33.5552H14.6009V36.4685H12.8516Z" fill="white"/>
<path d="M29.4915 32.1773V13.8296H32.7491V32.1773H29.4915Z" fill="white"/>
<path d="M32.1912 31.5576V16.8188H37.6597V31.5576H32.1912Z" fill="white"/>
<path d="M35.2078 16.8191V14.3604H37.6665V16.8191H35.2078Z" fill="#020203"/>
<path d="M32.749 16.8191V14.3604H35.2078V16.8191H32.749Z" fill="#020203"/>
<path d="M30.2971 14.3601V11.9014H32.7559V14.3601H30.2971Z" fill="#020203"/>
<path d="M27.8384 11.9085V9.44971H30.2971V11.9085H27.8384Z" fill="#020203"/>
<path d="M25.3796 9.44948V6.99072H27.8384V9.44948H25.3796Z" fill="#020203"/>
<path d="M22.9277 9.44948V6.99072H25.3865V9.44948H22.9277Z" fill="#020203"/>
<path d="M20.469 9.44948V6.99072H22.9278V9.44948H20.469Z" fill="#020203"/>
<path d="M18.0103 11.9085V9.44971H20.469V11.9085H18.0103Z" fill="#020203"/>
<path d="M18.0103 14.3601V11.9014H20.469V14.3601H18.0103Z" fill="#020203"/>
<path d="M15.5583 14.3601V11.9014H18.0171V14.3601H15.5583Z" fill="#020203"/>
<path d="M13.0996 11.9085V9.44971H15.5584V11.9085H13.0996Z" fill="#020203"/>
<path d="M10.6409 11.9085V9.44971H13.0996V11.9085H10.6409Z" fill="#020203"/>
<path d="M8.18896 14.3601V11.9014H10.6477V14.3601H8.18896Z" fill="#020203"/>
<path d="M8.18896 16.8191V14.3604H10.6477V16.8191H8.18896Z" fill="#020203"/>
<path d="M10.6409 19.2776V16.8188H13.0996V19.2776H10.6409Z" fill="#020203"/>
<path d="M8.18896 21.7293V19.2705H10.6477V21.7293H8.18896Z" fill="#020203"/>
<path d="M8.18896 24.1883V21.7295H10.6477V24.1883H8.18896Z" fill="#020203"/>
<path d="M10.6409 26.6472V24.1885H13.0996V26.6472H10.6409Z" fill="#020203"/>
<path d="M8.18896 29.0989V26.6401H10.6477V29.0989H8.18896Z" fill="#020203"/>
<path d="M8.18896 31.5579V29.0991H10.6477V31.5579H8.18896Z" fill="#020203"/>
<path d="M10.6409 34.0164V31.5576H13.0996V34.0164H10.6409Z" fill="#020203"/>
<path d="M10.6409 36.4685V34.0098H13.0996V36.4685H10.6409Z" fill="#020203"/>
<path d="M13.0996 34.0164V31.5576H15.5584V34.0164H13.0996Z" fill="#020203"/>
<path d="M18.0103 38.927V36.4683H20.469V38.927H18.0103Z" fill="#020203"/>
<path d="M15.5583 38.927V36.4683H18.0171V38.927H15.5583Z" fill="#020203"/>
<path d="M13.0996 38.927V36.4683H15.5584V38.927H13.0996Z" fill="#020203"/>
<path d="M22.9277 38.927V36.4683H25.3865V38.927H22.9277Z" fill="#020203"/>
<path d="M20.469 38.927V36.4683H22.9278V38.927H20.469Z" fill="#020203"/>
<path d="M27.8384 36.4685V34.0098H30.2971V36.4685H27.8384Z" fill="#020203"/>
<path d="M25.3796 36.4685V34.0098H27.8384V36.4685H25.3796Z" fill="#020203"/>
<path d="M30.2971 34.0164V31.5576H32.7559V34.0164H30.2971Z" fill="#020203"/>
<path d="M35.2078 34.0164V31.5576H37.6665V34.0164H35.2078Z" fill="#020203"/>
<path d="M32.749 34.0164V31.5576H35.2078V34.0164H32.749Z" fill="#020203"/>
<path d="M37.6597 21.7293V19.2705H40.1184V21.7293H37.6597Z" fill="#020203"/>
<path d="M37.6597 19.2776V16.8188H40.1184V19.2776H37.6597Z" fill="#020203"/>
<path d="M37.6597 26.6472V24.1885H40.1184V26.6472H37.6597Z" fill="#020203"/>
<path d="M37.6597 24.1883V21.7295H40.1184V24.1883H37.6597Z" fill="#020203"/>
<path d="M37.6597 31.5579V29.0991H40.1184V31.5579H37.6597Z" fill="#020203"/>
<path d="M37.6597 29.0989V26.6401H40.1184V29.0989H37.6597Z" fill="#020203"/>
</svg>
