<svg width="41" height="41" viewBox="0 0 41 41" fill="none" xmlns="http://www.w3.org/2000/svg">
<path d="M30.3591 16.8878V11.9014H25.3727V16.8878H30.3591Z" fill="white"/>
<path d="M27.7075 36.8813V12.3213H15.6203L15.6203 36.8813H27.7075Z" fill="white"/>
<path d="M17.1631 34.2917V11.4053H10.7028L10.7028 34.2917H17.1631Z" fill="white"/>
<path d="M20.531 15.0077V9.44971H13.1616V15.0077H20.531Z" fill="white"/>
<path d="M29.2778 28.6307V16.2681H27.2116V28.6307H29.2778Z" fill="white"/>
<path d="M30.3591 24.1811V19.2705H26.8466V24.1811H30.3591Z" fill="white"/>
<path d="M30.3591 31.5508V26.6401H26.3438V31.5508H30.3591Z" fill="white"/>
<path d="M28.1484 36.4685V33.5552H26.3991V36.4685H28.1484Z" fill="white"/>
<path d="M11.5085 32.1773L11.5085 13.8296H8.25086L8.25086 32.1773H11.5085Z" fill="white"/>
<path d="M8.80884 31.5576L8.80884 16.8188H3.34033L3.34033 31.5576H8.80884Z" fill="white"/>
<path d="M5.79224 16.8191V14.3604H3.33348V16.8191H5.79224Z" fill="#020203"/>
<path d="M8.25098 16.8191V14.3604H5.79222V16.8191H8.25098Z" fill="#020203"/>
<path d="M10.7029 14.3601V11.9014H8.24412V14.3601H10.7029Z" fill="#020203"/>
<path d="M13.1616 11.9085V9.44971H10.7029V11.9085H13.1616Z" fill="#020203"/>
<path d="M15.6204 9.44948V6.99072H13.1616V9.44948H15.6204Z" fill="#020203"/>
<path d="M18.0723 9.44948V6.99072H15.6135V9.44948H18.0723Z" fill="#020203"/>
<path d="M20.531 9.44948V6.99072H18.0722V9.44948H20.531Z" fill="#020203"/>
<path d="M22.9897 11.9085V9.44971H20.531V11.9085H22.9897Z" fill="#020203"/>
<path d="M22.9897 14.3601V11.9014H20.531V14.3601H22.9897Z" fill="#020203"/>
<path d="M25.4417 14.3601V11.9014H22.9829V14.3601H25.4417Z" fill="#020203"/>
<path d="M27.9004 11.9085V9.44971H25.4416V11.9085H27.9004Z" fill="#020203"/>
<path d="M30.3591 11.9085V9.44971H27.9004V11.9085H30.3591Z" fill="#020203"/>
<path d="M32.811 14.3601V11.9014H30.3523V14.3601H32.811Z" fill="#020203"/>
<path d="M32.811 16.8191V14.3604H30.3523V16.8191H32.811Z" fill="#020203"/>
<path d="M30.3591 19.2776V16.8188H27.9004V19.2776H30.3591Z" fill="#020203"/>
<path d="M32.811 21.7293V19.2705H30.3523V21.7293H32.811Z" fill="#020203"/>
<path d="M32.811 24.1883V21.7295H30.3523V24.1883H32.811Z" fill="#020203"/>
<path d="M30.3591 26.6472V24.1885H27.9004V26.6472H30.3591Z" fill="#020203"/>
<path d="M32.811 29.0989V26.6401H30.3523V29.0989H32.811Z" fill="#020203"/>
<path d="M32.811 31.5579V29.0991H30.3523V31.5579H32.811Z" fill="#020203"/>
<path d="M30.3591 34.0164V31.5576H27.9004V34.0164H30.3591Z" fill="#020203"/>
<path d="M30.3591 36.4685V34.0098H27.9004V36.4685H30.3591Z" fill="#020203"/>
<path d="M27.9004 34.0164V31.5576H25.4416V34.0164H27.9004Z" fill="#020203"/>
<path d="M22.9897 38.927V36.4683H20.531V38.927H22.9897Z" fill="#020203"/>
<path d="M25.4417 38.927V36.4683H22.9829V38.927H25.4417Z" fill="#020203"/>
<path d="M27.9004 38.927V36.4683H25.4416V38.927H27.9004Z" fill="#020203"/>
<path d="M18.0723 38.927V36.4683H15.6135V38.927H18.0723Z" fill="#020203"/>
<path d="M20.531 38.927V36.4683H18.0722V38.927H20.531Z" fill="#020203"/>
<path d="M13.1616 36.4685V34.0098H10.7029V36.4685H13.1616Z" fill="#020203"/>
<path d="M15.6204 36.4685V34.0098H13.1616V36.4685H15.6204Z" fill="#020203"/>
<path d="M10.7029 34.0164V31.5576H8.24412V34.0164H10.7029Z" fill="#020203"/>
<path d="M5.79224 34.0164V31.5576H3.33348V34.0164H5.79224Z" fill="#020203"/>
<path d="M8.25098 34.0164V31.5576H5.79222V34.0164H8.25098Z" fill="#020203"/>
<path d="M3.34033 21.7293V19.2705H0.881571V21.7293H3.34033Z" fill="#020203"/>
<path d="M3.34033 19.2776V16.8188H0.881571V19.2776H3.34033Z" fill="#020203"/>
<path d="M3.34033 26.6472V24.1885H0.881571V26.6472H3.34033Z" fill="#020203"/>
<path d="M3.34033 24.1883V21.7295H0.881571V24.1883H3.34033Z" fill="#020203"/>
<path d="M3.34033 31.5579V29.0991H0.881571V31.5579H3.34033Z" fill="#020203"/>
<path d="M3.34033 29.0989V26.6401H0.881571V29.0989H3.34033Z" fill="#020203"/>
</svg>
